<?xml version="1.0" standalone="no"?>
<!DOCTYPE svg PUBLIC "-//W3C//DTD SVG 20010904//EN"
 "http://www.w3.org/TR/2001/REC-SVG-20010904/DTD/svg10.dtd">
<svg version="1.0" xmlns="http://www.w3.org/2000/svg"
 width="512.000000pt" height="512.000000pt" viewBox="0 0 512.000000 512.000000"
 preserveAspectRatio="xMidYMid meet">
<metadata>
Created by potrace 1.11, written by Peter Selinger 2001-2013
</metadata>
<g transform="translate(0.000000,512.000000) scale(0.100000,-0.100000)"
fill="#000000" stroke="none">
<path d="M4510 5101 c-166 -50 -288 -171 -338 -335 -21 -72 -19 -197 5 -272
l20 -62 -543 -543 -544 -544 -27 18 c-219 142 -518 149 -727 17 -27 -17 -52
-30 -58 -28 -5 2 -204 198 -442 436 l-433 433 13 47 c48 188 -85 366 -275 365
-161 -1 -283 -117 -288 -276 -3 -121 60 -222 173 -274 46 -21 65 -24 122 -20
37 3 79 8 93 12 24 6 61 -28 462 -429 l437 -437 -41 -74 c-61 -112 -80 -182
-85 -310 -5 -149 23 -258 97 -378 l31 -50 -681 -681 -680 -680 -23 21 c-87 80
-272 121 -399 89 -226 -58 -369 -233 -375 -459 -3 -140 42 -252 143 -353 216
-215 574 -175 740 84 77 119 97 270 55 400 l-20 64 689 689 689 689 52 -34
c29 -18 71 -39 93 -47 22 -7 45 -16 50 -20 6 -4 26 -10 45 -14 78 -15 70 52
68 -602 l-3 -585 -60 -22 c-202 -73 -329 -263 -319 -477 11 -245 199 -434 449
-455 260 -22 498 191 511 458 9 207 -123 402 -321 474 l-60 22 -2 586 c-1 322
2 586 5 587 70 8 203 62 274 111 l26 18 441 -440 440 -441 -14 -38 c-17 -49
-13 -144 9 -194 56 -136 217 -211 353 -167 130 43 216 178 199 312 -24 180
-194 288 -375 238 -33 -9 -38 -7 -74 28 -37 35 -829 829 -835 836 -2 2 11 27
29 55 28 47 66 134 74 171 2 8 8 35 14 60 15 65 8 234 -14 305 -19 64 -55 143
-86 187 -11 14 -19 29 -19 32 0 6 1057 1066 1064 1066 2 0 33 -17 67 -38 119
-72 232 -93 354 -65 220 50 371 228 381 449 6 142 -39 256 -144 362 -62 62
-123 98 -217 126 -58 18 -181 16 -245 -3z"/>
</g>
</svg>
